{
    "asset" : {
        "generator" : "Khronos glTF Blender I/O v1.4.40",
        "version" : "2.0"
    },
    "scene" : 0,
    "scenes" : [
        {
            "name" : "Scene",
            "nodes" : [
                0,
                1,
                2
            ]
        }
    ],
    "nodes" : [
        {
            "name" : "Light",
            "rotation" : [
                0.16907575726509094,
                0.7558803558349609,
                -0.27217137813568115,
                0.570947527885437
            ],
            "translation" : [
                4.076245307922363,
                5.903861999511719,
                -1.0054539442062378
            ]
        },
        {
            "name" : "Camera",
            "rotation" : [
                0.483536034822464,
                0.33687159419059753,
                -0.20870360732078552,
                0.7804827094078064
            ],
            "translation" : [
                7.358891487121582,
                4.958309173583984,
                6.925790786743164
            ]
        },
        {
            "mesh" : 0,
            "name" : "Cylinder",
            "scale" : [
                0.5,
                1,
                0.5
            ]
        }
    ],
    "materials" : [
        {
            "doubleSided" : true,
            "name" : "Material.001",
            "pbrMetallicRoughness" : {
                "baseColorFactor" : [
                    0.006242300383746624,
                    0,
                    1,
                    1
                ],
                "metallicFactor" : 0,
                "roughnessFactor" : 0.5
            }
        },
        {
            "doubleSided" : true,
            "name" : "Material.002",
            "pbrMetallicRoughness" : {
                "baseColorFactor" : [
                    0.8000000715255737,
                    0.004581349901854992,
                    0,
                    1
                ],
                "metallicFactor" : 0,
                "roughnessFactor" : 0.5
            }
        },
        {
            "doubleSided" : true,
            "name" : "Material",
            "pbrMetallicRoughness" : {
                "baseColorFactor" : [
                    0.8000000715255737,
                    0.35791584849357605,
                    0,
                    1
                ],
                "metallicFactor" : 0,
                "roughnessFactor" : 0.5
            }
        },
        {
            "doubleSided" : true,
            "name" : "Material.003",
            "pbrMetallicRoughness" : {
                "baseColorFactor" : [
                    0.800000011920929,
                    0.800000011920929,
                    0.800000011920929,
                    1
                ],
                "metallicFactor" : 0,
                "roughnessFactor" : 0.5
            }
        },
        {
            "doubleSided" : true,
            "name" : "Material.004",
            "pbrMetallicRoughness" : {
                "baseColorFactor" : [
                    0.041772156953811646,
                    0.423725962638855,
                    0.8000000715255737,
                    1
                ],
                "metallicFactor" : 0,
                "roughnessFactor" : 0.5
            }
        }
    ],
    "meshes" : [
        {
            "name" : "Cylinder",
            "primitives" : [
                {
                    "attributes" : {
                        "POSITION" : 0,
                        "NORMAL" : 1,
                        "TEXCOORD_0" : 2,
                        "COLOR_0" : 3
                    },
                    "indices" : 4,
                    "material" : 0
                },
                {
                    "attributes" : {
                        "POSITION" : 5,
                        "NORMAL" : 6,
                        "TEXCOORD_0" : 7,
                        "COLOR_0" : 8
                    },
                    "indices" : 9,
                    "material" : 1
                },
                {
                    "attributes" : {
                        "POSITION" : 10,
                        "NORMAL" : 11,
                        "TEXCOORD_0" : 12,
                        "COLOR_0" : 13
                    },
                    "indices" : 14,
                    "material" : 2
                },
                {
                    "attributes" : {
                        "POSITION" : 15,
                        "NORMAL" : 16,
                        "TEXCOORD_0" : 17,
                        "COLOR_0" : 18
                    },
                    "indices" : 19,
                    "material" : 3
                },
                {
                    "attributes" : {
                        "POSITION" : 20,
                        "NORMAL" : 21,
                        "TEXCOORD_0" : 22,
                        "COLOR_0" : 23
                    },
                    "indices" : 24,
                    "material" : 4
                }
            ]
        }
    ],
    "accessors" : [
        {
            "bufferView" : 0,
            "componentType" : 5126,
            "count" : 1971,
            "max" : [
                1,
                1.5677071809768677,
                1
            ],
            "min" : [
                -1,
                -1.0001680850982666,
                -1.0000001192092896
            ],
            "type" : "VEC3"
        },
        {
            "bufferView" : 1,
            "componentType" : 5126,
            "count" : 1971,
            "type" : "VEC3"
        },
        {
            "bufferView" : 2,
            "componentType" : 5126,
            "count" : 1971,
            "type" : "VEC2"
        },
        {
            "bufferView" : 3,
            "componentType" : 5123,
            "count" : 1971,
            "normalized" : true,
            "type" : "VEC4"
        },
        {
            "bufferView" : 4,
            "componentType" : 5123,
            "count" : 3972,
            "type" : "SCALAR"
        },
        {
            "bufferView" : 5,
            "componentType" : 5126,
            "count" : 280,
            "max" : [
                2.0636000633239746,
                -0.2697344124317169,
                1.853816032409668
            ],
            "min" : [
                -2,
                -1,
                -0.09754631668329239
            ],
            "type" : "VEC3"
        },
        {
            "bufferView" : 6,
            "componentType" : 5126,
            "count" : 280,
            "type" : "VEC3"
        },
        {
            "bufferView" : 7,
            "componentType" : 5126,
            "count" : 280,
            "type" : "VEC2"
        },
        {
            "bufferView" : 8,
            "componentType" : 5123,
            "count" : 280,
            "normalized" : true,
            "type" : "VEC4"
        },
        {
            "bufferView" : 9,
            "componentType" : 5123,
            "count" : 636,
            "type" : "SCALAR"
        },
        {
            "bufferView" : 10,
            "componentType" : 5126,
            "count" : 256,
            "max" : [
                1,
                0.6825664043426514,
                0.9999999403953552
            ],
            "min" : [
                -1,
                0.36513277888298035,
                -1.0000001192092896
            ],
            "type" : "VEC3"
        },
        {
            "bufferView" : 11,
            "componentType" : 5126,
            "count" : 256,
            "type" : "VEC3"
        },
        {
            "bufferView" : 12,
            "componentType" : 5126,
            "count" : 256,
            "type" : "VEC2"
        },
        {
            "bufferView" : 13,
            "componentType" : 5123,
            "count" : 256,
            "normalized" : true,
            "type" : "VEC4"
        },
        {
            "bufferView" : 14,
            "componentType" : 5123,
            "count" : 384,
            "type" : "SCALAR"
        },
        {
            "bufferView" : 15,
            "componentType" : 5126,
            "count" : 256,
            "max" : [
                1,
                0.36513280868530273,
                0.9999998807907104
            ],
            "min" : [
                -1,
                0.047699153423309326,
                -1.0000001192092896
            ],
            "type" : "VEC3"
        },
        {
            "bufferView" : 16,
            "componentType" : 5126,
            "count" : 256,
            "type" : "VEC3"
        },
        {
            "bufferView" : 17,
            "componentType" : 5126,
            "count" : 256,
            "type" : "VEC2"
        },
        {
            "bufferView" : 18,
            "componentType" : 5123,
            "count" : 256,
            "normalized" : true,
            "type" : "VEC4"
        },
        {
            "bufferView" : 19,
            "componentType" : 5123,
            "count" : 384,
            "type" : "SCALAR"
        },
        {
            "bufferView" : 20,
            "componentType" : 5126,
            "count" : 256,
            "max" : [
                1,
                0.047699183225631714,
                0.9999998807907104
            ],
            "min" : [
                -1,
                -0.2697344422340393,
                -1.0000001192092896
            ],
            "type" : "VEC3"
        },
        {
            "bufferView" : 21,
            "componentType" : 5126,
            "count" : 256,
            "type" : "VEC3"
        },
        {
            "bufferView" : 22,
            "componentType" : 5126,
            "count" : 256,
            "type" : "VEC2"
        },
        {
            "bufferView" : 23,
            "componentType" : 5123,
            "count" : 256,
            "normalized" : true,
            "type" : "VEC4"
        },
        {
            "bufferView" : 24,
            "componentType" : 5123,
            "count" : 384,
            "type" : "SCALAR"
        }
    ],
    "bufferViews" : [
        {
            "buffer" : 0,
            "byteLength" : 23652,
            "byteOffset" : 0
        },
        {
            "buffer" : 0,
            "byteLength" : 23652,
            "byteOffset" : 23652
        },
        {
            "buffer" : 0,
            "byteLength" : 15768,
            "byteOffset" : 47304
        },
        {
            "buffer" : 0,
            "byteLength" : 15768,
            "byteOffset" : 63072
        },
        {
            "buffer" : 0,
            "byteLength" : 7944,
            "byteOffset" : 78840
        },
        {
            "buffer" : 0,
            "byteLength" : 3360,
            "byteOffset" : 86784
        },
        {
            "buffer" : 0,
            "byteLength" : 3360,
            "byteOffset" : 90144
        },
        {
            "buffer" : 0,
            "byteLength" : 2240,
            "byteOffset" : 93504
        },
        {
            "buffer" : 0,
            "byteLength" : 2240,
            "byteOffset" : 95744
        },
        {
            "buffer" : 0,
            "byteLength" : 1272,
            "byteOffset" : 97984
        },
        {
            "buffer" : 0,
            "byteLength" : 3072,
            "byteOffset" : 99256
        },
        {
            "buffer" : 0,
            "byteLength" : 3072,
            "byteOffset" : 102328
        },
        {
            "buffer" : 0,
            "byteLength" : 2048,
            "byteOffset" : 105400
        },
        {
            "buffer" : 0,
            "byteLength" : 2048,
            "byteOffset" : 107448
        },
        {
            "buffer" : 0,
            "byteLength" : 768,
            "byteOffset" : 109496
        },
        {
            "buffer" : 0,
            "byteLength" : 3072,
            "byteOffset" : 110264
        },
        {
            "buffer" : 0,
            "byteLength" : 3072,
            "byteOffset" : 113336
        },
        {
            "buffer" : 0,
            "byteLength" : 2048,
            "byteOffset" : 116408
        },
        {
            "buffer" : 0,
            "byteLength" : 2048,
            "byteOffset" : 118456
        },
        {
            "buffer" : 0,
            "byteLength" : 768,
            "byteOffset" : 120504
        },
        {
            "buffer" : 0,
            "byteLength" : 3072,
            "byteOffset" : 121272
        },
        {
            "buffer" : 0,
            "byteLength" : 3072,
            "byteOffset" : 124344
        },
        {
            "buffer" : 0,
            "byteLength" : 2048,
            "byteOffset" : 127416
        },
        {
            "buffer" : 0,
            "byteLength" : 2048,
            "byteOffset" : 129464
        },
        {
            "buffer" : 0,
            "byteLength" : 768,
            "byteOffset" : 131512
        }
    ],
    "buffers" : [
        {
            "byteLength" : 132280,
            "uri" : "data:application/octet-stream;base64,"
        }
    ]
}
